<svg xmlns="http://www.w3.org/2000/svg" xmlns:xlink="http://www.w3.org/1999/xlink" width="150" zoomAndPan="magnify" viewBox="0 0 112.5 30.000001" height="40" preserveAspectRatio="xMidYMid meet" version="1.0"><defs><g/><clipPath id="c6d33bfc19"><path d="M 103 10 L 110.445312 10 L 110.445312 19 L 103 19 Z M 103 10 " clip-rule="nonzero"/></clipPath></defs><g fill="#ffffff" fill-opacity="1"><g transform="translate(1.572579, 18.087274)"><g><path d="M 0.898438 0 L 2.59375 0 L 2.59375 -4.597656 L 5.902344 0 L 7.347656 0 L 7.347656 -7.5 L 5.65625 -7.5 L 5.65625 -2.933594 L 2.347656 -7.5 L 0.898438 -7.5 Z M 0.898438 0 "/></g></g></g><g fill="#ffffff" fill-opacity="1"><g transform="translate(9.821974, 18.087274)"><g><path d="M 0.898438 0 L 2.601562 0 L 2.601562 -7.5 L 0.898438 -7.5 Z M 0.898438 0 "/></g></g></g><g fill="#ffffff" fill-opacity="1"><g transform="translate(13.325287, 18.087274)"><g><path d="M 0.898438 0 L 5.882812 0 L 5.882812 -1.597656 L 2.601562 -1.597656 L 2.601562 -7.5 L 0.898438 -7.5 Z M 0.898438 0 "/></g></g></g><g fill="#ffffff" fill-opacity="1"><g transform="translate(19.496261, 18.087274)"><g><path d="M 0.0976562 0 L 1.917969 0 L 2.421875 -1.296875 L 5.398438 -1.296875 L 5.902344 0 L 7.722656 0 L 4.746094 -7.5 L 3.074219 -7.5 Z M 2.859375 -2.636719 L 3.910156 -5.378906 L 4.972656 -2.636719 Z M 2.859375 -2.636719 "/></g></g></g><g fill="#ffffff" fill-opacity="1"><g transform="translate(27.317109, 18.087274)"><g/></g></g><g fill="#ffffff" fill-opacity="1"><g transform="translate(29.834784, 18.087274)"><g><path d="M 0.898438 0 L 2.601562 0 L 2.601562 -2.335938 L 3.726562 -2.335938 L 5.066406 0 L 7.039062 0 L 5.484375 -2.601562 C 6.386719 -3 6.910156 -3.8125 6.910156 -4.917969 C 6.910156 -6.515625 5.816406 -7.5 4.101562 -7.5 L 0.898438 -7.5 Z M 2.582031 -3.769531 L 2.582031 -6.042969 L 3.878906 -6.042969 C 4.714844 -6.042969 5.183594 -5.636719 5.183594 -4.90625 C 5.183594 -4.179688 4.714844 -3.769531 3.878906 -3.769531 Z M 2.582031 -3.769531 "/></g></g></g><g fill="#ffffff" fill-opacity="1"><g transform="translate(37.377086, 18.087274)"><g><path d="M 0.898438 0 L 5.945312 0 L 5.945312 -1.445312 L 2.59375 -1.445312 L 2.59375 -3.085938 L 5.539062 -3.085938 L 5.539062 -4.511719 L 2.59375 -4.511719 L 2.59375 -6.0625 L 5.828125 -6.0625 L 5.828125 -7.5 L 0.898438 -7.5 Z M 0.898438 0 "/></g></g></g><g fill="#ffffff" fill-opacity="1"><g transform="translate(43.869464, 18.087274)"><g><path d="M 4.339844 0.148438 C 6.308594 0.148438 7.84375 -1.050781 8.21875 -2.871094 L 6.460938 -2.871094 C 6.148438 -2.015625 5.355469 -1.46875 4.371094 -1.46875 C 3.097656 -1.46875 2.195312 -2.398438 2.195312 -3.75 C 2.195312 -5.097656 3.105469 -6.03125 4.382812 -6.03125 C 5.335938 -6.03125 6.117188 -5.515625 6.40625 -4.691406 L 8.164062 -4.691406 C 7.734375 -6.492188 6.234375 -7.648438 4.328125 -7.648438 C 2.058594 -7.648438 0.460938 -6.042969 0.460938 -3.75 C 0.460938 -1.457031 2.058594 0.148438 4.339844 0.148438 Z M 4.339844 0.148438 "/></g></g></g><g fill="#ffffff" fill-opacity="1"><g transform="translate(52.515256, 18.087274)"><g><path d="M 0.898438 0 L 2.601562 0 L 2.601562 -2.335938 L 3.726562 -2.335938 L 5.066406 0 L 7.039062 0 L 5.484375 -2.601562 C 6.386719 -3 6.910156 -3.8125 6.910156 -4.917969 C 6.910156 -6.515625 5.816406 -7.5 4.101562 -7.5 L 0.898438 -7.5 Z M 2.582031 -3.769531 L 2.582031 -6.042969 L 3.878906 -6.042969 C 4.714844 -6.042969 5.183594 -5.636719 5.183594 -4.90625 C 5.183594 -4.179688 4.714844 -3.769531 3.878906 -3.769531 Z M 2.582031 -3.769531 "/></g></g></g><g fill="#ffffff" fill-opacity="1"><g transform="translate(60.057558, 18.087274)"><g><path d="M 3.964844 0.148438 C 5.914062 0.148438 7.101562 -1.070312 7.101562 -3.085938 L 7.101562 -7.5 L 5.398438 -7.5 L 5.398438 -3.203125 C 5.398438 -2.058594 4.917969 -1.46875 3.964844 -1.46875 C 3.011719 -1.46875 2.527344 -2.058594 2.527344 -3.203125 L 2.527344 -7.5 L 0.824219 -7.5 L 0.824219 -3.085938 C 0.824219 -1.070312 2.015625 0.148438 3.964844 0.148438 Z M 3.964844 0.148438 "/></g></g></g><g fill="#ffffff" fill-opacity="1"><g transform="translate(67.985549, 18.087274)"><g><path d="M 0.898438 0 L 2.601562 0 L 2.601562 -7.5 L 0.898438 -7.5 Z M 0.898438 0 "/></g></g></g><g fill="#ffffff" fill-opacity="1"><g transform="translate(71.488862, 18.087274)"><g><path d="M 2.699219 0 L 4.402344 0 L 4.402344 -5.902344 L 6.78125 -5.902344 L 6.78125 -7.5 L 0.320312 -7.5 L 0.320312 -5.902344 L 2.699219 -5.902344 Z M 2.699219 0 "/></g></g></g><g fill="#ffffff" fill-opacity="1"><g transform="translate(78.59191, 18.087274)"><g><path d="M 0.898438 0 L 2.59375 0 L 2.59375 -4.519531 L 4.414062 -1.851562 L 5.59375 -1.851562 L 7.414062 -4.511719 L 7.414062 0 L 9.105469 0 L 9.105469 -7.5 L 7.671875 -7.5 L 5.015625 -3.609375 L 2.347656 -7.5 L 0.898438 -7.5 Z M 0.898438 0 "/></g></g></g><g fill="#ffffff" fill-opacity="1"><g transform="translate(88.598322, 18.087274)"><g><path d="M 0.898438 0 L 5.945312 0 L 5.945312 -1.445312 L 2.59375 -1.445312 L 2.59375 -3.085938 L 5.539062 -3.085938 L 5.539062 -4.511719 L 2.59375 -4.511719 L 2.59375 -6.0625 L 5.828125 -6.0625 L 5.828125 -7.5 L 0.898438 -7.5 Z M 0.898438 0 "/></g></g></g><g fill="#ffffff" fill-opacity="1"><g transform="translate(95.0907, 18.087274)"><g><path d="M 0.898438 0 L 2.59375 0 L 2.59375 -4.597656 L 5.902344 0 L 7.347656 0 L 7.347656 -7.5 L 5.65625 -7.5 L 5.65625 -2.933594 L 2.347656 -7.5 L 0.898438 -7.5 Z M 0.898438 0 "/></g></g></g><g clip-path="url(#c6d33bfc19)"><g fill="#ffffff" fill-opacity="1"><g transform="translate(103.340095, 18.087274)"><g><path d="M 2.699219 0 L 4.402344 0 L 4.402344 -5.902344 L 6.78125 -5.902344 L 6.78125 -7.5 L 0.320312 -7.5 L 0.320312 -5.902344 L 2.699219 -5.902344 Z M 2.699219 0 "/></g></g></g></g></svg>